<svg width="112" height="176" viewBox="0 0 112 176" fill="none" xmlns="http://www.w3.org/2000/svg">
<path fill-rule="evenodd" clip-rule="evenodd" d="M97.1007 72.5902C104.966 67.9789 104.966 56.4504 97.1007 51.8391L26.7519 10.5961C18.8862 5.98475 9.05406 11.749 9.05405 20.9717L9.05405 72.4887L9.05405 103.458L9.05405 154.975C9.05405 164.197 18.8862 169.962 26.7519 165.35L97.1007 124.107C104.966 119.496 104.966 107.967 97.1007 103.356L70.8618 87.9732L97.1007 72.5902Z" stroke="url(#paint0_linear_5_44)" stroke-width="17.0811"/>
<path d="M41.8802 94.3787C35.2245 94.3787 32.5407 90.1411 32.5407 87.9733C32.5407 85.8055 35.2245 81.5679 41.8802 81.5679C42.5347 81.5679 44.2624 81.9107 47.1576 83.1823C49.8448 84.3625 52.7989 86.0076 55.636 87.763C55.7493 87.8331 55.8621 87.9032 55.9744 87.9733C55.8621 88.0434 55.7493 88.1135 55.636 88.1835C52.7989 89.939 49.8448 91.5841 47.1576 92.7643C44.2624 94.0359 42.5347 94.3787 41.8802 94.3787Z" stroke="#5189ED" stroke-width="17.0811"/>
<defs>
<linearGradient id="paint0_linear_5_44" x1="103" y1="87.9731" x2="9.05405" y2="87.9731" gradientUnits="userSpaceOnUse">
<stop stop-color="#8759F2"/>
<stop offset="1" stop-color="#00D4E6"/>
</linearGradient>
</defs>
</svg>
