<svg width="384" height="281" viewBox="0 0 384 281" fill="none" xmlns="http://www.w3.org/2000/svg">
<path fill-rule="evenodd" clip-rule="evenodd" d="M233.101 72.5902C240.966 67.9789 240.966 56.4504 233.101 51.8391L162.752 10.5961C154.886 5.98475 145.054 11.749 145.054 20.9717L145.054 72.4887L145.054 103.458L145.054 154.975C145.054 164.197 154.886 169.962 162.752 165.35L233.101 124.107C240.966 119.496 240.966 107.967 233.101 103.356L206.862 87.9732L233.101 72.5902Z" stroke="url(#paint0_linear_414_79)" stroke-width="17.0811"/>
<path d="M177.88 94.3787C171.224 94.3787 168.541 90.1411 168.541 87.9733C168.541 85.8055 171.224 81.5679 177.88 81.5679C178.535 81.5679 180.262 81.9107 183.158 83.1823C185.845 84.3625 188.799 86.0076 191.636 87.763C191.749 87.8331 191.862 87.9032 191.974 87.9733C191.862 88.0434 191.749 88.1135 191.636 88.1835C188.799 89.939 185.845 91.5841 183.158 92.7643C180.262 94.0359 178.535 94.3787 177.88 94.3787Z" stroke="#5189ED" stroke-width="17.0811"/>
<path d="M24.6094 241.535H11.4609L11.3906 234.293H22.4297C24.375 234.293 25.9688 234.047 27.2109 233.555C28.4531 233.039 29.3789 232.301 29.9883 231.34C30.6211 230.355 30.9375 229.16 30.9375 227.754C30.9375 226.16 30.6328 224.871 30.0234 223.887C29.4375 222.902 28.5117 222.188 27.2461 221.742C26.0039 221.297 24.3984 221.074 22.4297 221.074H15.1172V264H4.57031V212.812H22.4297C25.4062 212.812 28.0664 213.094 30.4102 213.656C32.7773 214.219 34.7812 215.074 36.4219 216.223C38.0625 217.371 39.3164 218.824 40.1836 220.582C41.0508 222.316 41.4844 224.379 41.4844 226.77C41.4844 228.879 41.0039 230.824 40.043 232.605C39.1055 234.387 37.6172 235.84 35.5781 236.965C33.5625 238.09 30.9258 238.711 27.668 238.828L24.6094 241.535ZM24.1523 264H8.57812L12.6914 255.773H24.1523C26.0039 255.773 27.5156 255.48 28.6875 254.895C29.8594 254.285 30.7266 253.465 31.2891 252.434C31.8516 251.402 32.1328 250.219 32.1328 248.883C32.1328 247.383 31.875 246.082 31.3594 244.98C30.8672 243.879 30.0703 243.035 28.9688 242.449C27.8672 241.84 26.4141 241.535 24.6094 241.535H14.4492L14.5195 234.293H27.1758L29.6016 237.141C32.7188 237.094 35.2266 237.645 37.125 238.793C39.0469 239.918 40.4414 241.383 41.3086 243.188C42.1992 244.992 42.6445 246.926 42.6445 248.988C42.6445 252.27 41.9297 255.035 40.5 257.285C39.0703 259.512 36.9727 261.188 34.207 262.312C31.4648 263.438 28.1133 264 24.1523 264ZM67.4297 264.703C64.4766 264.703 61.8281 264.234 59.4844 263.297C57.1406 262.336 55.1484 261.012 53.5078 259.324C51.8906 257.637 50.6484 255.68 49.7812 253.453C48.9141 251.203 48.4805 248.812 48.4805 246.281V244.875C48.4805 241.992 48.8906 239.355 49.7109 236.965C50.5312 234.574 51.7031 232.5 53.2266 230.742C54.7734 228.984 56.6484 227.637 58.8516 226.699C61.0547 225.738 63.5391 225.258 66.3047 225.258C69 225.258 71.3906 225.703 73.4766 226.594C75.5625 227.484 77.3086 228.75 78.7148 230.391C80.1445 232.031 81.2227 234 81.9492 236.297C82.6758 238.57 83.0391 241.102 83.0391 243.891V248.109H52.8047V241.359H73.0898V240.586C73.0898 239.18 72.832 237.926 72.3164 236.824C71.8242 235.699 71.0742 234.809 70.0664 234.152C69.0586 233.496 67.7695 233.168 66.1992 233.168C64.8633 233.168 63.7148 233.461 62.7539 234.047C61.793 234.633 61.0078 235.453 60.3984 236.508C59.8125 237.562 59.3672 238.805 59.0625 240.234C58.7812 241.641 58.6406 243.188 58.6406 244.875V246.281C58.6406 247.805 58.8516 249.211 59.2734 250.5C59.7188 251.789 60.3398 252.902 61.1367 253.84C61.957 254.777 62.9414 255.504 64.0898 256.02C65.2617 256.535 66.5859 256.793 68.0625 256.793C69.8906 256.793 71.5898 256.441 73.1602 255.738C74.7539 255.012 76.125 253.922 77.2734 252.469L82.1953 257.812C81.3984 258.961 80.3086 260.062 78.9258 261.117C77.5664 262.172 75.9258 263.039 74.0039 263.719C72.082 264.375 69.8906 264.703 67.4297 264.703ZM109.336 255.422V238.477C109.336 237.258 109.137 236.215 108.738 235.348C108.34 234.457 107.719 233.766 106.875 233.273C106.055 232.781 104.988 232.535 103.676 232.535C102.551 232.535 101.578 232.734 100.758 233.133C99.9375 233.508 99.3047 234.059 98.8594 234.785C98.4141 235.488 98.1914 236.32 98.1914 237.281H88.0664C88.0664 235.664 88.4414 234.129 89.1914 232.676C89.9414 231.223 91.0312 229.945 92.4609 228.844C93.8906 227.719 95.5898 226.84 97.5586 226.207C99.5508 225.574 101.777 225.258 104.238 225.258C107.191 225.258 109.816 225.75 112.113 226.734C114.41 227.719 116.215 229.195 117.527 231.164C118.863 233.133 119.531 235.594 119.531 238.547V254.824C119.531 256.91 119.66 258.621 119.918 259.957C120.176 261.27 120.551 262.418 121.043 263.402V264H110.812C110.32 262.969 109.945 261.68 109.688 260.133C109.453 258.562 109.336 256.992 109.336 255.422ZM110.672 240.832L110.742 246.562H105.082C103.746 246.562 102.586 246.715 101.602 247.02C100.617 247.324 99.8086 247.758 99.1758 248.32C98.543 248.859 98.0742 249.492 97.7695 250.219C97.4883 250.945 97.3477 251.742 97.3477 252.609C97.3477 253.477 97.5469 254.262 97.9453 254.965C98.3438 255.645 98.918 256.184 99.668 256.582C100.418 256.957 101.297 257.145 102.305 257.145C103.828 257.145 105.152 256.84 106.277 256.23C107.402 255.621 108.27 254.871 108.879 253.98C109.512 253.09 109.84 252.246 109.863 251.449L112.535 255.738C112.16 256.699 111.645 257.695 110.988 258.727C110.355 259.758 109.547 260.73 108.562 261.645C107.578 262.535 106.395 263.273 105.012 263.859C103.629 264.422 101.988 264.703 100.09 264.703C97.6758 264.703 95.4844 264.223 93.5156 263.262C91.5703 262.277 90.0234 260.93 88.875 259.219C87.75 257.484 87.1875 255.516 87.1875 253.312C87.1875 251.32 87.5625 249.551 88.3125 248.004C89.0625 246.457 90.1641 245.156 91.6172 244.102C93.0938 243.023 94.9336 242.215 97.1367 241.676C99.3398 241.113 101.895 240.832 104.801 240.832H110.672ZM143.051 256.793C144.293 256.793 145.395 256.559 146.355 256.09C147.316 255.598 148.066 254.918 148.605 254.051C149.168 253.16 149.461 252.117 149.484 250.922H159.012C158.988 253.594 158.273 255.973 156.867 258.059C155.461 260.121 153.574 261.75 151.207 262.945C148.84 264.117 146.191 264.703 143.262 264.703C140.309 264.703 137.73 264.211 135.527 263.227C133.348 262.242 131.531 260.883 130.078 259.148C128.625 257.391 127.535 255.352 126.809 253.031C126.082 250.688 125.719 248.18 125.719 245.508V244.488C125.719 241.793 126.082 239.285 126.809 236.965C127.535 234.621 128.625 232.582 130.078 230.848C131.531 229.09 133.348 227.719 135.527 226.734C137.707 225.75 140.262 225.258 143.191 225.258C146.309 225.258 149.039 225.855 151.383 227.051C153.75 228.246 155.602 229.957 156.938 232.184C158.297 234.387 158.988 237 159.012 240.023H149.484C149.461 238.758 149.191 237.609 148.676 236.578C148.184 235.547 147.457 234.727 146.496 234.117C145.559 233.484 144.398 233.168 143.016 233.168C141.539 233.168 140.332 233.484 139.395 234.117C138.457 234.727 137.73 235.57 137.215 236.648C136.699 237.703 136.336 238.91 136.125 240.27C135.938 241.605 135.844 243.012 135.844 244.488V245.508C135.844 246.984 135.938 248.402 136.125 249.762C136.312 251.121 136.664 252.328 137.18 253.383C137.719 254.438 138.457 255.27 139.395 255.879C140.332 256.488 141.551 256.793 143.051 256.793ZM174.762 210V264H164.637V210H174.762ZM173.32 243.645H170.543C170.566 240.996 170.918 238.559 171.598 236.332C172.277 234.082 173.25 232.137 174.516 230.496C175.781 228.832 177.293 227.543 179.051 226.629C180.832 225.715 182.801 225.258 184.957 225.258C186.832 225.258 188.531 225.527 190.055 226.066C191.602 226.582 192.926 227.426 194.027 228.598C195.152 229.746 196.02 231.258 196.629 233.133C197.238 235.008 197.543 237.281 197.543 239.953V264H187.348V239.883C187.348 238.195 187.102 236.871 186.609 235.91C186.141 234.926 185.449 234.234 184.535 233.836C183.645 233.414 182.543 233.203 181.23 233.203C179.777 233.203 178.535 233.473 177.504 234.012C176.496 234.551 175.688 235.301 175.078 236.262C174.469 237.199 174.023 238.301 173.742 239.566C173.461 240.832 173.32 242.191 173.32 243.645ZM244.793 212.812V264H234.281V212.812H244.793ZM260.543 212.812V221.074H218.777V212.812H260.543ZM276.609 225.961V264H266.449V225.961H276.609ZM265.816 216.047C265.816 214.57 266.332 213.352 267.363 212.391C268.395 211.43 269.777 210.949 271.512 210.949C273.223 210.949 274.594 211.43 275.625 212.391C276.68 213.352 277.207 214.57 277.207 216.047C277.207 217.523 276.68 218.742 275.625 219.703C274.594 220.664 273.223 221.145 271.512 221.145C269.777 221.145 268.395 220.664 267.363 219.703C266.332 218.742 265.816 217.523 265.816 216.047ZM295.102 233.836V264H284.941V225.961H294.469L295.102 233.836ZM293.695 243.645H290.883C290.883 240.996 291.199 238.559 291.832 236.332C292.488 234.082 293.438 232.137 294.68 230.496C295.945 228.832 297.504 227.543 299.355 226.629C301.207 225.715 303.352 225.258 305.789 225.258C307.477 225.258 309.023 225.516 310.43 226.031C311.836 226.523 313.043 227.309 314.051 228.387C315.082 229.441 315.879 230.824 316.441 232.535C317.004 234.223 317.285 236.25 317.285 238.617V264H307.16V239.742C307.16 238.008 306.926 236.672 306.457 235.734C305.988 234.797 305.32 234.141 304.453 233.766C303.609 233.391 302.59 233.203 301.395 233.203C300.082 233.203 298.934 233.473 297.949 234.012C296.988 234.551 296.191 235.301 295.559 236.262C294.926 237.199 294.457 238.301 294.152 239.566C293.848 240.832 293.695 242.191 293.695 243.645ZM316.336 242.484L312.715 242.941C312.715 240.457 313.02 238.148 313.629 236.016C314.262 233.883 315.188 232.008 316.406 230.391C317.648 228.773 319.184 227.52 321.012 226.629C322.84 225.715 324.949 225.258 327.34 225.258C329.168 225.258 330.832 225.527 332.332 226.066C333.832 226.582 335.109 227.414 336.164 228.562C337.242 229.688 338.062 231.164 338.625 232.992C339.211 234.82 339.504 237.059 339.504 239.707V264H329.344V239.707C329.344 237.949 329.109 236.613 328.641 235.699C328.195 234.762 327.539 234.117 326.672 233.766C325.828 233.391 324.82 233.203 323.648 233.203C322.43 233.203 321.363 233.449 320.449 233.941C319.535 234.41 318.773 235.066 318.164 235.91C317.555 236.754 317.098 237.738 316.793 238.863C316.488 239.965 316.336 241.172 316.336 242.484ZM364.852 264.703C361.898 264.703 359.25 264.234 356.906 263.297C354.562 262.336 352.57 261.012 350.93 259.324C349.312 257.637 348.07 255.68 347.203 253.453C346.336 251.203 345.902 248.812 345.902 246.281V244.875C345.902 241.992 346.312 239.355 347.133 236.965C347.953 234.574 349.125 232.5 350.648 230.742C352.195 228.984 354.07 227.637 356.273 226.699C358.477 225.738 360.961 225.258 363.727 225.258C366.422 225.258 368.812 225.703 370.898 226.594C372.984 227.484 374.73 228.75 376.137 230.391C377.566 232.031 378.645 234 379.371 236.297C380.098 238.57 380.461 241.102 380.461 243.891V248.109H350.227V241.359H370.512V240.586C370.512 239.18 370.254 237.926 369.738 236.824C369.246 235.699 368.496 234.809 367.488 234.152C366.48 233.496 365.191 233.168 363.621 233.168C362.285 233.168 361.137 233.461 360.176 234.047C359.215 234.633 358.43 235.453 357.82 236.508C357.234 237.562 356.789 238.805 356.484 240.234C356.203 241.641 356.062 243.188 356.062 244.875V246.281C356.062 247.805 356.273 249.211 356.695 250.5C357.141 251.789 357.762 252.902 358.559 253.84C359.379 254.777 360.363 255.504 361.512 256.02C362.684 256.535 364.008 256.793 365.484 256.793C367.312 256.793 369.012 256.441 370.582 255.738C372.176 255.012 373.547 253.922 374.695 252.469L379.617 257.812C378.82 258.961 377.73 260.062 376.348 261.117C374.988 262.172 373.348 263.039 371.426 263.719C369.504 264.375 367.312 264.703 364.852 264.703Z" fill="black"/>
<defs>
<linearGradient id="paint0_linear_414_79" x1="239" y1="87.9731" x2="145.054" y2="87.9731" gradientUnits="userSpaceOnUse">
<stop stop-color="#8759F2"/>
<stop offset="1" stop-color="#00D4E6"/>
</linearGradient>
</defs>
</svg>
